<svg width="11" height="10" viewBox="0 0 11 10" fill="none" xmlns="http://www.w3.org/2000/svg">
<path id="Vector" d="M10 8.22581L6.96695 6.10126M5.39475 5L3 3.32258M10 1.77419L3 6.67742M3.5 2.29032C3.5 3.00295 2.94036 3.58065 2.25 3.58065C1.55964 3.58065 1 3.00295 1 2.29032C1 1.5777 1.55964 1 2.25 1C2.94036 1 3.5 1.5777 3.5 2.29032ZM3.5 7.70968C3.5 6.99706 2.94036 6.41935 2.25 6.41935C1.55964 6.41935 1 6.99706 1 7.70968C1 8.4223 1.55964 9 2.25 9C2.94036 9 3.5 8.4223 3.5 7.70968Z" stroke="black" stroke-linecap="round" stroke-linejoin="round"/>
</svg>
